<?xml version="1.0" encoding="UTF-8"?><svg xmlns="http://www.w3.org/2000/svg" version="1.2" baseProfile="tiny" viewBox="0 0 7 8" width="7px" height="8px"><g fill="#000"><rect fill="#000" x="2" width="1" height="1"/><rect height="1" fill="#000" x="3" width="1"/><rect x="1" y="1" width="1" height="1" fill="#000"/><rect x="2" y="1" width="1" height="1" fill="#000"/><rect x="3" y="1" width="1" height="1" fill="#000"/><rect width="1" height="1" fill="#000" x="4" y="1"/><rect x="5" y="1" width="1" height="1" fill="#000"/><rect y="2" width="1" height="1" fill="#000"/><rect y="2" width="1" height="1" fill="#000" x="1"/><rect height="1" fill="#000" x="2" y="2" width="1"/><rect y="3" width="1" height="1" fill="#000" x="1"/><rect x="2" y="3" width="1" height="1" fill="#000"/><rect x="3" y="3" width="1" height="1" fill="#000"/><rect width="1" height="1" fill="#000" x="4" y="3"/><rect height="1" fill="#000" x="3" y="4" width="1"/><rect x="4" y="4" width="1" height="1" fill="#000"/><rect x="5" y="4" width="1" height="1" fill="#000"/><rect y="5" width="1" height="1" fill="#000"/><rect fill="#000" x="1" y="5" width="1" height="1"/><rect width="1" height="1" fill="#000" x="2" y="5"/><rect y="5" width="1" height="1" fill="#000" x="3"/><rect x="4" y="5" width="1" height="1" fill="#000"/><rect x="2" y="6" width="1" height="1" fill="#000"/><rect x="3" y="6" width="1" height="1" fill="#000"/></g></svg>