<?xml version="1.0" encoding="UTF-8"?><svg height="8px" xmlns="http://www.w3.org/2000/svg" version="1.2" baseProfile="tiny" viewBox="0 0 7 8" width="7px"><g fill="#000"><rect width="1" height="1" fill="#000" x="1"/><rect width="1" height="1" fill="#000" x="2"/><rect x="3" width="1" height="1" fill="#000"/><rect x="4" width="1" height="1" fill="#000"/><rect x="2" y="1" width="1" height="1" fill="#000"/><rect height="1" fill="#000" x="3" y="1" width="1"/><rect x="2" y="2" width="1" height="1" fill="#000"/><rect x="3" y="2" width="1" height="1" fill="#000"/><rect fill="#000" x="2" y="3" width="1" height="1"/><rect fill="#000" x="3" y="3" width="1" height="1"/><rect width="1" height="1" fill="#000" x="2" y="4"/><rect x="3" y="4" width="1" height="1" fill="#000"/><rect x="2" y="5" width="1" height="1" fill="#000"/><rect x="3" y="5" width="1" height="1" fill="#000"/><rect x="1" y="6" width="1" height="1" fill="#000"/><rect x="2" y="6" width="1" height="1" fill="#000"/><rect x="3" y="6" width="1" height="1" fill="#000"/><rect x="4" y="6" width="1" height="1" fill="#000"/></g></svg>